# Blender v3.1.2 OBJ File: ''
# www.blender.org
mtllib pointer.mtl
o Cube
v 0.247776 1.000000 -1.915173
v 0.155469 -1.000000 -1.139588
v 0.247776 1.000000 1.915173
v 0.155469 -1.000000 1.139588
v -0.247776 1.000000 -1.915173
v -0.155469 -1.000000 -1.139588
v -0.247776 1.000000 1.915173
v -0.155469 -1.000000 1.139588
v 0.000000 -4.195144 0.000000
v 0.273526 9.498518 -0.707620
v 0.273526 9.498518 0.707620
v -0.273526 9.498518 -0.707620
v -0.273526 9.498518 0.707620
vt 0.625000 0.500000
vt 0.875000 0.500000
vt 0.875000 0.750000
vt 0.625000 0.750000
vt 0.000000 0.000000
vt 0.000000 0.000000
vt 0.000000 0.000000
vt 0.000000 0.000000
vt 0.000000 0.000000
vt 0.000000 0.000000
vt 0.000000 0.000000
vt 0.000000 0.000000
vt 0.000000 0.000000
vt 0.000000 0.000000
vt 0.000000 0.000000
vn 0.0000 1.0000 0.0000
vn 0.0000 -0.3616 -0.9323
vn -0.9988 -0.0486 0.0000
vn 0.0000 -0.3616 0.9323
vn 0.0000 -0.3359 -0.9419
vn 0.0000 -0.3359 0.9419
vn 0.9988 -0.0486 0.0000
vn -0.9989 -0.0461 0.0000
vn 0.0000 0.0411 0.9992
vn 0.0000 0.0411 -0.9992
vn -0.9999 -0.0112 0.0000
vn 0.9999 -0.0112 0.0000
vn 0.9989 -0.0461 0.0000
usemtl Material
s off
f 1/1/1 5/2/1 7/3/1 3/4/1
f 5/2/2 1/1/2 2/5/2 6/6/2
f 9/7/3 8/8/3 6/6/3
f 8/8/4 4/9/4 3/4/4 7/3/4
f 6/6/5 2/5/5 9/7/5
f 4/9/6 8/8/6 9/7/6
f 9/7/7 2/5/7 4/9/7
f 7/3/8 5/2/8 6/6/8 8/8/8
f 4/9/9 11/10/9 13/11/9 8/8/9
f 6/6/10 12/12/10 10/13/10 2/5/10
f 8/8/11 13/11/11 12/12/11 6/6/11
f 4/9/12 2/5/12 10/13/12 11/10/12
f 4/9/13 2/5/13 1/14/13 3/15/13
f 10/13/1 12/12/1 13/11/1 11/10/1
