# Blender v3.1.2 OBJ File: 'Cannon.blend'
# www.blender.org
mtllib Cannon.mtl
o Cube
v 1.391623 0.985069 -0.843085
v 1.391623 -1.000000 -0.843085
v 1.391623 0.985069 0.843085
v 1.391623 -1.000000 0.843085
v 1.008377 0.985069 -0.843085
v 1.008377 -1.000000 -0.843085
v 1.008377 0.985069 0.843085
v 1.008377 -1.000000 0.843085
v 1.391623 1.268554 -0.753440
v 1.391623 1.268554 0.753440
v 1.008377 1.268554 -0.753440
v 1.008377 1.268554 0.753440
v 1.391623 1.478835 -0.523511
v 1.391623 1.478835 0.523511
v 1.008377 1.478835 -0.523511
v 1.008377 1.478835 0.523511
v 1.391623 1.547964 -0.160514
v 1.391623 1.547964 0.160514
v 1.008377 1.547964 -0.160514
v 1.008377 1.547964 0.160514
v 1.200000 1.000000 0.843085
v 1.200000 1.000000 -0.843085
v 1.200000 1.285066 0.753440
v 1.200000 1.285066 -0.753440
v 1.008377 1.158548 0.813142
v 1.008377 1.158548 -0.813142
v 1.391623 1.158548 -0.813142
v 1.391623 1.158548 0.813142
v 1.200000 1.495347 0.523511
v 1.200000 1.495347 -0.523511
v 1.008377 1.387874 0.655925
v 1.008377 1.387874 -0.655925
v 1.391623 1.387874 0.655925
v 1.391623 1.387874 -0.655925
v 1.200000 1.564476 0.160514
v 1.200000 1.564476 -0.160514
v 1.008377 1.516147 -0.374300
v 1.391623 1.516147 -0.374300
v 1.391623 1.516147 0.374300
v 1.008377 1.516147 0.374300
v 1.200000 1.532659 0.374300
v 1.200000 1.532659 -0.374300
v 1.200000 1.404386 -0.655925
v 1.200000 1.404386 0.655925
v 1.200000 1.175060 0.813142
v 1.200000 1.175060 -0.813142
vt 0.375000 0.250000
vt 0.625000 0.250000
vt 0.625000 0.500000
vt 0.375000 0.500000
vt 0.125000 0.500000
vt 0.375000 0.750000
vt 0.125000 0.750000
vt 0.625000 0.375000
vt 0.625000 0.375000
vt 0.625000 0.250000
vt 0.625000 0.250000
vt 0.625000 0.375000
vt 0.625000 0.875000
vt 0.625000 0.750000
vt 0.625000 0.750000
vt 0.625000 0.875000
vt 0.625000 0.875000
vt 0.625000 0.750000
vt 0.625000 0.750000
vt 0.625000 0.875000
vt 0.625000 0.375000
vt 0.625000 0.250000
vt 0.625000 0.250000
vt 0.625000 0.375000
vt 0.625000 0.375000
vt 0.625000 0.250000
vt 0.625000 0.250000
vt 0.625000 0.375000
vt 0.625000 0.875000
vt 0.625000 0.750000
vt 0.625000 0.750000
vt 0.625000 0.875000
vt 0.625000 1.000000
vt 0.625000 1.000000
vt 0.625000 1.000000
vt 0.625000 0.500000
vt 0.625000 0.500000
vt 0.625000 0.500000
vt 0.625000 0.500000
vt 0.625000 0.500000
vt 0.625000 1.000000
vt 0.625000 1.000000
vt 0.625000 1.000000
vt 0.625000 1.000000
vt 0.625000 0.875000
vt 0.625000 0.750000
vt 0.625000 0.500000
vt 0.375000 1.000000
vn -0.5774 -0.5774 -0.5774
vn -0.6908 0.0584 -0.7207
vn 0.6908 0.0584 -0.7207
vn 0.5774 -0.5774 -0.5774
vn 0.5774 -0.5774 0.5774
vn -0.5774 -0.5774 0.5774
vn 0.0000 0.0891 -0.9960
vn -0.0000 0.3354 -0.9421
vn -0.6822 0.2336 -0.6928
vn -0.7037 0.3935 -0.5916
vn 0.0000 0.5609 -0.8279
vn -0.0000 0.3354 0.9421
vn 0.6822 0.2336 0.6928
vn 0.7037 0.3935 0.5916
vn 0.0000 0.5609 0.8279
vn 0.0000 0.7394 0.6732
vn 0.6994 0.5234 0.4867
vn 0.6977 0.6519 0.2970
vn -0.0000 0.9133 0.4073
vn 0.0000 0.7394 -0.6732
vn -0.6994 0.5234 -0.4867
vn -0.6977 0.6519 -0.2970
vn -0.0000 0.9133 -0.4073
vn -0.0000 0.9809 -0.1946
vn -0.7260 0.6744 -0.1345
vn -0.7212 0.6908 -0.0513
vn -0.0000 0.9973 -0.0735
vn -0.0000 0.9809 0.1946
vn 0.7260 0.6744 0.1345
vn 0.7212 0.6908 0.0513
vn -0.0000 0.9973 0.0735
vn -0.7260 0.6744 0.1345
vn -0.7212 0.6908 0.0513
vn -0.6977 0.6519 0.2970
vn 0.7260 0.6744 -0.1345
vn 0.7212 0.6908 -0.0513
vn 0.6977 0.6519 -0.2970
vn 0.6994 0.5234 -0.4867
vn 0.7037 0.3935 -0.5916
vn -0.6994 0.5234 0.4867
vn -0.7037 0.3935 0.5916
vn -0.6822 0.2336 0.6928
vn -0.6908 0.0584 0.7207
vn 0.0000 0.0891 0.9960
vn 0.6908 0.0584 0.7207
vn 0.6822 0.2336 -0.6928
usemtl Material
s 1
f 6/1/1 5/2/2 1/3/3 2/4/4
f 6/5/1 2/4/4 4/6/5 8/7/6
f 22/8/7 1/3/3 5/2/2
f 46/9/8 26/10/9 11/11/10 24/12/11
f 45/13/12 28/14/13 10/15/14 23/16/15
f 44/17/16 33/18/17 14/19/18 29/20/19
f 43/21/20 32/22/21 15/23/22 30/24/23
f 42/25/24 37/26/25 19/27/26 36/28/27
f 41/29/28 39/30/29 18/31/30 35/32/31
f 40/33/32 41/29/28 35/32/31 20/34/33
f 16/35/34 29/20/19 41/29/28 40/33/32
f 29/20/19 14/19/18 39/30/29 41/29/28
f 38/36/35 42/25/24 36/28/27 17/37/36
f 13/38/37 30/24/23 42/25/24 38/36/35
f 30/24/23 15/23/22 37/26/25 42/25/24
f 34/39/38 43/21/20 30/24/23 13/38/37
f 9/40/39 24/12/11 43/21/20 34/39/38
f 24/12/11 11/11/10 32/22/21 43/21/20
f 31/41/40 44/17/16 29/20/19 16/35/34
f 12/42/41 23/16/15 44/17/16 31/41/40
f 23/16/15 10/15/14 33/18/17 44/17/16
f 25/43/42 45/13/12 23/16/15 12/42/41
f 7/44/43 21/45/44 45/13/12 25/43/42
f 21/45/44 3/46/45 28/14/13 45/13/12
f 27/47/46 46/9/8 24/12/11 9/40/39
f 1/3/3 22/8/7 46/9/8 27/47/46
f 22/8/7 5/2/2 26/10/9 46/9/8
f 2/4/4 1/3/3 3/46/45 4/6/5
f 6/1/1 8/48/6 7/44/43 5/2/2
f 36/28/27 35/32/31 18/31/30 17/37/36
f 35/32/31 36/28/27 19/27/26 20/34/33
f 8/7/6 4/6/5 3/46/45 7/44/43
f 21/45/44 7/44/43 3/46/45
f 28/14/13 3/46/45 1/3/3 27/47/46
f 27/47/46 9/40/39 10/15/14 28/14/13
f 34/39/38 33/18/17 10/15/14 9/40/39
f 33/18/17 34/39/38 13/38/37 14/19/18
f 13/38/37 38/36/35 39/30/29 14/19/18
f 38/36/35 17/37/36 18/31/30 39/30/29
f 26/10/9 5/2/2 7/44/43 25/43/42
f 25/43/42 12/42/41 11/11/10 26/10/9
f 32/22/21 11/11/10 12/42/41 31/41/40
f 31/41/40 16/35/34 15/23/22 32/22/21
f 37/26/25 15/23/22 16/35/34 40/33/32
f 19/27/26 37/26/25 40/33/32 20/34/33
o Cube.001
v -1.008177 0.985069 -0.843085
v -1.008177 -1.000000 -0.843085
v -1.008177 0.985069 0.843085
v -1.008177 -1.000000 0.843085
v -1.391423 0.985069 -0.843085
v -1.391423 -1.000000 -0.843085
v -1.391423 0.985069 0.843085
v -1.391423 -1.000000 0.843085
v -1.008177 1.268554 -0.753440
v -1.008177 1.268554 0.753440
v -1.391423 1.268554 -0.753440
v -1.391423 1.268554 0.753440
v -1.008177 1.478835 -0.523511
v -1.008177 1.478835 0.523511
v -1.391423 1.478835 -0.523511
v -1.391423 1.478835 0.523511
v -1.008177 1.547964 -0.160514
v -1.008177 1.547964 0.160514
v -1.391423 1.547964 -0.160514
v -1.391423 1.547964 0.160514
v -1.199800 1.000000 0.843085
v -1.199800 1.000000 -0.843085
v -1.199800 1.285066 0.753440
v -1.199800 1.285066 -0.753440
v -1.391423 1.158548 0.813142
v -1.391423 1.158548 -0.813142
v -1.008177 1.158548 -0.813142
v -1.008177 1.158548 0.813142
v -1.199800 1.495347 0.523511
v -1.199800 1.495347 -0.523511
v -1.391423 1.387874 0.655925
v -1.391423 1.387874 -0.655925
v -1.008177 1.387874 0.655925
v -1.008177 1.387874 -0.655925
v -1.199800 1.564476 0.160514
v -1.199800 1.564476 -0.160514
v -1.391423 1.516147 -0.374300
v -1.008177 1.516147 -0.374300
v -1.008177 1.516147 0.374300
v -1.391423 1.516147 0.374300
v -1.199800 1.532659 0.374300
v -1.199800 1.532659 -0.374300
v -1.199800 1.404386 -0.655925
v -1.199800 1.404386 0.655925
v -1.199800 1.175060 0.813142
v -1.199800 1.175060 -0.813142
vt 0.375000 0.250000
vt 0.625000 0.250000
vt 0.625000 0.500000
vt 0.375000 0.500000
vt 0.125000 0.500000
vt 0.375000 0.750000
vt 0.125000 0.750000
vt 0.625000 0.375000
vt 0.625000 0.375000
vt 0.625000 0.250000
vt 0.625000 0.250000
vt 0.625000 0.375000
vt 0.625000 0.875000
vt 0.625000 0.750000
vt 0.625000 0.750000
vt 0.625000 0.875000
vt 0.625000 0.875000
vt 0.625000 0.750000
vt 0.625000 0.750000
vt 0.625000 0.875000
vt 0.625000 0.375000
vt 0.625000 0.250000
vt 0.625000 0.250000
vt 0.625000 0.375000
vt 0.625000 0.375000
vt 0.625000 0.250000
vt 0.625000 0.250000
vt 0.625000 0.375000
vt 0.625000 0.875000
vt 0.625000 0.750000
vt 0.625000 0.750000
vt 0.625000 0.875000
vt 0.625000 1.000000
vt 0.625000 1.000000
vt 0.625000 1.000000
vt 0.625000 0.500000
vt 0.625000 0.500000
vt 0.625000 0.500000
vt 0.625000 0.500000
vt 0.625000 0.500000
vt 0.625000 1.000000
vt 0.625000 1.000000
vt 0.625000 1.000000
vt 0.625000 1.000000
vt 0.625000 0.875000
vt 0.625000 0.750000
vt 0.625000 0.500000
vt 0.375000 1.000000
vn -0.5774 -0.5774 -0.5774
vn -0.6908 0.0584 -0.7207
vn 0.6908 0.0584 -0.7207
vn 0.5774 -0.5774 -0.5774
vn 0.5774 -0.5774 0.5774
vn -0.5774 -0.5774 0.5774
vn 0.0000 0.0891 -0.9960
vn -0.0000 0.3354 -0.9421
vn -0.6822 0.2336 -0.6928
vn -0.7037 0.3935 -0.5916
vn -0.0000 0.5609 -0.8279
vn -0.0000 0.3354 0.9421
vn 0.6822 0.2336 0.6928
vn 0.7037 0.3935 0.5916
vn -0.0000 0.5609 0.8279
vn -0.0000 0.7394 0.6732
vn 0.6994 0.5234 0.4867
vn 0.6977 0.6519 0.2970
vn 0.0000 0.9133 0.4073
vn -0.0000 0.7394 -0.6732
vn -0.6994 0.5234 -0.4867
vn -0.6977 0.6519 -0.2970
vn 0.0000 0.9133 -0.4073
vn 0.0000 0.9809 -0.1946
vn -0.7260 0.6744 -0.1345
vn -0.7212 0.6908 -0.0513
vn 0.0000 0.9973 -0.0735
vn 0.0000 0.9809 0.1946
vn 0.7260 0.6744 0.1345
vn 0.7212 0.6908 0.0513
vn 0.0000 0.9973 0.0735
vn -0.7260 0.6744 0.1345
vn -0.7212 0.6908 0.0513
vn -0.6977 0.6519 0.2970
vn 0.7260 0.6744 -0.1345
vn 0.7212 0.6908 -0.0513
vn 0.6977 0.6519 -0.2970
vn 0.6994 0.5234 -0.4867
vn 0.7037 0.3935 -0.5916
vn -0.6994 0.5234 0.4867
vn -0.7037 0.3935 0.5916
vn -0.6822 0.2336 0.6928
vn -0.6908 0.0584 0.7207
vn 0.0000 0.0891 0.9960
vn 0.6908 0.0584 0.7207
vn 0.6822 0.2336 -0.6928
usemtl Material
s 1
f 52/49/47 51/50/48 47/51/49 48/52/50
f 52/53/47 48/52/50 50/54/51 54/55/52
f 68/56/53 47/51/49 51/50/48
f 92/57/54 72/58/55 57/59/56 70/60/57
f 91/61/58 74/62/59 56/63/60 69/64/61
f 90/65/62 79/66/63 60/67/64 75/68/65
f 89/69/66 78/70/67 61/71/68 76/72/69
f 88/73/70 83/74/71 65/75/72 82/76/73
f 87/77/74 85/78/75 64/79/76 81/80/77
f 86/81/78 87/77/74 81/80/77 66/82/79
f 62/83/80 75/68/65 87/77/74 86/81/78
f 75/68/65 60/67/64 85/78/75 87/77/74
f 84/84/81 88/73/70 82/76/73 63/85/82
f 59/86/83 76/72/69 88/73/70 84/84/81
f 76/72/69 61/71/68 83/74/71 88/73/70
f 80/87/84 89/69/66 76/72/69 59/86/83
f 55/88/85 70/60/57 89/69/66 80/87/84
f 70/60/57 57/59/56 78/70/67 89/69/66
f 77/89/86 90/65/62 75/68/65 62/83/80
f 58/90/87 69/64/61 90/65/62 77/89/86
f 69/64/61 56/63/60 79/66/63 90/65/62
f 71/91/88 91/61/58 69/64/61 58/90/87
f 53/92/89 67/93/90 91/61/58 71/91/88
f 67/93/90 49/94/91 74/62/59 91/61/58
f 73/95/92 92/57/54 70/60/57 55/88/85
f 47/51/49 68/56/53 92/57/54 73/95/92
f 68/56/53 51/50/48 72/58/55 92/57/54
f 48/52/50 47/51/49 49/94/91 50/54/51
f 52/49/47 54/96/52 53/92/89 51/50/48
f 82/76/73 81/80/77 64/79/76 63/85/82
f 81/80/77 82/76/73 65/75/72 66/82/79
f 54/55/52 50/54/51 49/94/91 53/92/89
f 67/93/90 53/92/89 49/94/91
f 74/62/59 49/94/91 47/51/49 73/95/92
f 73/95/92 55/88/85 56/63/60 74/62/59
f 80/87/84 79/66/63 56/63/60 55/88/85
f 79/66/63 80/87/84 59/86/83 60/67/64
f 59/86/83 84/84/81 85/78/75 60/67/64
f 84/84/81 63/85/82 64/79/76 85/78/75
f 72/58/55 51/50/48 53/92/89 71/91/88
f 71/91/88 58/90/87 57/59/56 72/58/55
f 78/70/67 57/59/56 58/90/87 77/89/86
f 77/89/86 62/83/80 61/71/68 78/70/67
f 83/74/71 61/71/68 62/83/80 86/81/78
f 65/75/72 83/74/71 86/81/78 66/82/79
o Cylinder
v 0.047115 -0.593685 0.620172
v -0.109845 0.519920 -2.405633
v 0.240635 -0.559572 0.606644
v 0.083675 0.554032 -2.419160
v 0.425119 -0.490884 0.607298
v 0.268159 0.622721 -2.418506
v 0.593477 -0.390260 0.622107
v 0.436517 0.723345 -2.403697
v 0.739239 -0.261567 0.650504
v 0.582279 0.852037 -2.375300
v 0.856805 -0.109751 0.691396
v 0.699845 1.003854 -2.334408
v 0.941656 0.059354 0.743213
v 0.784696 1.172958 -2.282592
v 0.990530 0.239249 0.803962
v 0.833570 1.352854 -2.221843
v 1.001551 0.423022 0.871309
v 0.844591 1.536627 -2.154495
v 0.974295 0.603609 0.942667
v 0.817335 1.717214 -2.083137
v 0.909808 0.774072 1.015293
v 0.752848 1.887677 -2.010511
v 0.810569 0.927859 1.086396
v 0.653609 2.041463 -1.939409
v 0.680393 1.059059 1.153243
v 0.523433 2.172664 -1.872561
v 0.524280 1.162633 1.213266
v 0.367320 2.276238 -1.812538
v 0.348232 1.234598 1.264158
v 0.191272 2.348203 -1.761646
v 0.159012 1.272190 1.303963
v 0.002052 2.385795 -1.721841
v -0.036107 1.273963 1.331152
v -0.193067 2.387568 -1.694652
v -0.229626 1.239851 1.344680
v -0.386586 2.353455 -1.681124
v -0.414110 1.171162 1.344026
v -0.571070 2.284767 -1.681778
v -0.582468 1.070538 1.329217
v -0.739428 2.184143 -1.696588
v -0.728230 0.941846 1.300820
v -0.885190 2.055450 -1.724984
v -0.845796 0.790030 1.259928
v -1.002756 1.903635 -1.765876
v -0.930647 0.620925 1.208112
v -1.087607 1.734529 -1.817693
v -0.979522 0.441029 1.147362
v -1.136482 1.554634 -1.878442
v -0.990543 0.257256 1.080015
v -1.147503 1.370861 -1.945789
v -0.963286 0.076669 1.008657
v -1.120246 1.190274 -2.017147
v -0.898799 -0.093794 0.936031
v -1.055759 1.019811 -2.089773
v -0.799561 -0.247580 0.864928
v -0.956521 0.866025 -2.160876
v -0.669384 -0.378781 0.798081
v -0.826344 0.734824 -2.227723
v -0.513271 -0.482354 0.738058
v -0.670231 0.631250 -2.287746
v -0.337223 -0.554320 0.687166
v -0.494183 0.559285 -2.338638
v -0.148003 -0.591911 0.647361
v -0.304963 0.521693 -2.378444
v 0.024540 -0.410300 0.543620
v -0.119134 0.707252 -2.336205
v 0.190315 -0.381524 0.530706
v 0.035737 0.735434 -2.349911
v 0.348628 -0.323023 0.530020
v 0.183421 0.791265 -2.352080
v 0.493317 -0.236999 0.541614
v 0.318223 0.872600 -2.342629
v 0.618734 -0.126743 0.565058
v 0.434945 0.976308 -2.321921
v 0.719974 0.003492 0.599455
v 0.529092 1.098394 -2.290756
v 0.793074 0.148663 0.643476
v 0.597040 1.234154 -2.250335
v 0.835170 0.303130 0.695414
v 0.636177 1.378365 -2.202214
v 0.844618 0.460888 0.753250
v 0.645000 1.525476 -2.148245
v 0.821048 0.615799 0.814734
v 0.623168 1.669831 -2.090504
v 0.765391 0.761840 0.877474
v 0.571520 1.805874 -2.031212
v 0.679833 0.893339 0.939031
v 0.492041 1.928368 -1.972651
v 0.567731 1.005201 0.997017
v 0.387789 2.032596 -1.917075
v 0.433478 1.093111 1.049188
v 0.262780 2.114541 -1.866625
v 0.282323 1.153706 1.093534
v 0.121835 2.171047 -1.823244
v 0.120158 1.184705 1.128360
v -0.029608 2.199943 -1.788599
v -0.046723 1.184991 1.152347
v -0.185708 2.200127 -1.764019
v -0.211879 1.154649 1.164609
v -0.340449 2.171613 -1.750442
v -0.368975 1.094946 1.164711
v -0.487877 2.115525 -1.748381
v -0.512033 1.008268 1.152691
v -0.622336 2.034044 -1.757903
v -0.635650 0.898007 1.129044
v -0.738679 1.930327 -1.778634
v -0.735197 0.768417 1.094699
v -0.832468 1.808371 -1.809770
v -0.806970 0.624447 1.050977
v -0.900136 1.672858 -1.850115
v -0.848309 0.471552 0.999540
v -0.939113 1.528976 -1.898123
v -0.857685 0.315498 0.942331
v -0.947921 1.382224 -1.951961
v -0.834742 0.162159 0.881503
v -0.926222 1.238204 -2.009572
v -0.780313 0.017319 0.819348
v -0.874833 1.102419 -2.068756
v -0.696393 -0.113532 0.758215
v -0.795700 0.980067 -2.127247
v -0.586091 -0.225398 0.700429
v -0.691827 0.875845 -2.182800
v -0.453524 -0.313961 0.648203
v -0.567173 0.793769 -2.233280
v -0.303686 -0.375757 0.603557
v -0.426505 0.737015 -2.276738
v -0.142271 -0.408320 0.568231
v -0.275219 0.707793 -2.311495
vt 1.000000 0.500000
vt 1.000000 1.000000
vt 0.968750 1.000000
vt 0.968750 0.500000
vt 0.937500 1.000000
vt 0.937500 0.500000
vt 0.906250 1.000000
vt 0.906250 0.500000
vt 0.875000 1.000000
vt 0.875000 0.500000
vt 0.843750 1.000000
vt 0.843750 0.500000
vt 0.812500 1.000000
vt 0.812500 0.500000
vt 0.781250 1.000000
vt 0.781250 0.500000
vt 0.750000 1.000000
vt 0.750000 0.500000
vt 0.718750 1.000000
vt 0.718750 0.500000
vt 0.687500 1.000000
vt 0.687500 0.500000
vt 0.656250 1.000000
vt 0.656250 0.500000
vt 0.625000 1.000000
vt 0.625000 0.500000
vt 0.593750 1.000000
vt 0.593750 0.500000
vt 0.562500 1.000000
vt 0.562500 0.500000
vt 0.531250 1.000000
vt 0.531250 0.500000
vt 0.500000 1.000000
vt 0.500000 0.500000
vt 0.468750 1.000000
vt 0.468750 0.500000
vt 0.437500 1.000000
vt 0.437500 0.500000
vt 0.406250 1.000000
vt 0.406250 0.500000
vt 0.375000 1.000000
vt 0.375000 0.500000
vt 0.343750 1.000000
vt 0.343750 0.500000
vt 0.312500 1.000000
vt 0.312500 0.500000
vt 0.281250 1.000000
vt 0.281250 0.500000
vt 0.250000 1.000000
vt 0.250000 0.500000
vt 0.218750 1.000000
vt 0.218750 0.500000
vt 0.187500 1.000000
vt 0.187500 0.500000
vt 0.156250 1.000000
vt 0.156250 0.500000
vt 0.125000 1.000000
vt 0.125000 0.500000
vt 0.093750 1.000000
vt 0.093750 0.500000
vt 0.062500 1.000000
vt 0.062500 0.500000
vt 0.031250 1.000000
vt 0.031250 0.500000
vt 0.000000 1.000000
vt 0.000000 0.500000
vt 0.750000 0.490000
vt 0.796822 0.485388
vt 0.841844 0.471731
vt 0.883337 0.449553
vt 0.919706 0.419706
vt 0.949553 0.383337
vt 0.971731 0.341844
vt 0.985388 0.296822
vt 0.990000 0.250000
vt 0.985388 0.203178
vt 0.971731 0.158156
vt 0.949553 0.116663
vt 0.919706 0.080294
vt 0.883337 0.050447
vt 0.841844 0.028269
vt 0.796822 0.014612
vt 0.750000 0.010000
vt 0.703178 0.014612
vt 0.658156 0.028269
vt 0.616663 0.050447
vt 0.580294 0.080294
vt 0.550447 0.116663
vt 0.528269 0.158156
vt 0.514612 0.203178
vt 0.510000 0.250000
vt 0.514612 0.296822
vt 0.528269 0.341844
vt 0.550447 0.383337
vt 0.580294 0.419706
vt 0.616663 0.449553
vt 0.658156 0.471731
vt 0.703178 0.485388
vt 1.000000 0.500000
vt 0.968750 0.500000
vt 0.968750 1.000000
vt 1.000000 1.000000
vt 0.937500 0.500000
vt 0.937500 1.000000
vt 0.906250 0.500000
vt 0.906250 1.000000
vt 0.875000 0.500000
vt 0.875000 1.000000
vt 0.843750 0.500000
vt 0.843750 1.000000
vt 0.812500 0.500000
vt 0.812500 1.000000
vt 0.781250 0.500000
vt 0.781250 1.000000
vt 0.750000 0.500000
vt 0.750000 1.000000
vt 0.718750 0.500000
vt 0.718750 1.000000
vt 0.687500 0.500000
vt 0.687500 1.000000
vt 0.656250 0.500000
vt 0.656250 1.000000
vt 0.625000 0.500000
vt 0.625000 1.000000
vt 0.593750 0.500000
vt 0.593750 1.000000
vt 0.562500 0.500000
vt 0.562500 1.000000
vt 0.531250 0.500000
vt 0.531250 1.000000
vt 0.500000 0.500000
vt 0.500000 1.000000
vt 0.468750 0.500000
vt 0.468750 1.000000
vt 0.437500 0.500000
vt 0.437500 1.000000
vt 0.406250 0.500000
vt 0.406250 1.000000
vt 0.375000 0.500000
vt 0.375000 1.000000
vt 0.343750 0.500000
vt 0.343750 1.000000
vt 0.312500 0.500000
vt 0.312500 1.000000
vt 0.281250 0.500000
vt 0.281250 1.000000
vt 0.250000 0.500000
vt 0.250000 1.000000
vt 0.218750 0.500000
vt 0.218750 1.000000
vt 0.187500 0.500000
vt 0.187500 1.000000
vt 0.156250 0.500000
vt 0.156250 1.000000
vt 0.125000 0.500000
vt 0.125000 1.000000
vt 0.093750 0.500000
vt 0.093750 1.000000
vt 0.062500 0.500000
vt 0.062500 1.000000
vt 0.031250 0.500000
vt 0.031250 1.000000
vt 0.000000 0.500000
vt 0.000000 1.000000
vt 0.750000 0.490000
vt 0.703178 0.485388
vt 0.658156 0.471731
vt 0.616663 0.449553
vt 0.580294 0.419706
vt 0.550447 0.383337
vt 0.528269 0.341844
vt 0.514612 0.296822
vt 0.510000 0.250000
vt 0.514612 0.203178
vt 0.528269 0.158156
vt 0.550447 0.116663
vt 0.580294 0.080294
vt 0.616663 0.050447
vt 0.658156 0.028269
vt 0.703178 0.014612
vt 0.750000 0.010000
vt 0.796822 0.014612
vt 0.841844 0.028269
vt 0.883337 0.050447
vt 0.919706 0.080294
vt 0.949553 0.116663
vt 0.971731 0.158156
vt 0.985388 0.203178
vt 0.990000 0.250000
vt 0.985388 0.296822
vt 0.971731 0.341844
vt 0.949553 0.383337
vt 0.919706 0.419706
vt 0.883337 0.449553
vt 0.841844 0.471731
vt 0.796822 0.485388
vn 0.1129 -0.9169 0.3828
vn -0.0578 -0.4492 -0.8915
vn 0.0866 -0.4372 -0.8952
vn 0.2516 -0.8902 0.3797
vn 0.2280 -0.3976 -0.8888
vn 0.3825 -0.8393 0.3864
vn 0.3602 -0.3314 -0.8720
vn 0.5008 -0.7663 0.4025
vn 0.4769 -0.2404 -0.8454
vn 0.6025 -0.6741 0.4272
vn 0.5726 -0.1282 -0.8098
vn 0.6842 -0.5662 0.4597
vn 0.6422 0.0006 -0.7665
vn 0.7429 -0.4465 0.4987
vn 0.6824 0.1402 -0.7175
vn 0.7768 -0.3194 0.5427
vn 0.6908 0.2841 -0.6649
vn 0.7847 -0.1893 0.5903
vn 0.6672 0.4257 -0.6113
vn 0.7662 -0.0609 0.6397
vn 0.6129 0.5583 -0.5591
vn 0.7221 0.0612 0.6891
vn 0.5309 0.6762 -0.5107
vn 0.6537 0.1726 0.7368
vn 0.4255 0.7743 -0.4683
vn 0.5633 0.2693 0.7811
vn 0.3020 0.8490 -0.4337
vn 0.4540 0.3476 0.8204
vn 0.1661 0.8978 -0.4079
vn 0.3295 0.4045 0.8531
vn 0.0241 0.9197 -0.3919
vn 0.1943 0.4374 0.8780
vn -0.1184 0.9149 -0.3858
vn 0.0531 0.4449 0.8940
vn -0.2557 0.8848 -0.3896
vn -0.0887 0.4260 0.9004
vn -0.3831 0.8314 -0.4026
vn -0.2257 0.3811 0.8966
vn -0.4964 0.7575 -0.4240
vn -0.3522 0.3113 0.8826
vn -0.5924 0.6664 -0.4528
vn -0.4629 0.2192 0.8589
vn -0.6685 0.5615 -0.4877
vn -0.5530 0.1081 0.8261
vn -0.7229 0.4465 -0.5273
vn -0.6184 -0.0176 0.7857
vn -0.7542 0.3250 -0.5705
vn -0.6561 -0.1526 0.7391
vn -0.7619 0.2007 -0.6159
vn -0.6643 -0.2912 0.6884
vn -0.7455 0.0773 -0.6620
vn -0.6427 -0.4275 0.6358
vn -0.7054 -0.0414 -0.7076
vn -0.5924 -0.5556 0.5834
vn -0.6423 -0.1518 -0.7513
vn -0.5158 -0.6702 0.5336
vn -0.5577 -0.2499 -0.7916
vn -0.4165 -0.7669 0.4883
vn -0.4536 -0.3320 -0.8271
vn -0.2987 -0.8420 0.4493
vn -0.3329 -0.3946 -0.8565
vn -0.1677 -0.8928 0.4180
vn -0.1994 -0.4345 -0.8783
vn -0.0287 -0.9180 0.3956
vn -0.1138 0.9204 -0.3741
vn -0.2537 0.8935 -0.3706
vn -0.2565 0.8604 -0.4403
vn -0.1274 0.8914 -0.4349
vn -0.3857 0.8421 -0.3770
vn -0.3752 0.8079 -0.4544
vn -0.5051 0.7684 -0.3930
vn -0.4799 0.7370 -0.4760
vn -0.6078 0.6754 -0.4177
vn -0.5677 0.6508 -0.5042
vn -0.6902 0.5665 -0.4503
vn -0.6369 0.5527 -0.5375
vn -0.7495 0.4457 -0.4895
vn -0.6861 0.4459 -0.5748
vn -0.7837 0.3173 -0.5339
vn -0.7145 0.3336 -0.6150
vn -0.7917 0.1860 -0.5819
vn -0.7216 0.2189 -0.6568
vn -0.7730 0.0565 -0.6318
vn -0.7072 0.1046 -0.6992
vn -0.7284 -0.0667 -0.6818
vn -0.6713 -0.0059 -0.7411
vn -0.6594 -0.1791 -0.7302
vn -0.6144 -0.1095 -0.7814
vn -0.5681 -0.2765 -0.7751
vn -0.5373 -0.2027 -0.8187
vn -0.4578 -0.3553 -0.8149
vn -0.4415 -0.2819 -0.8519
vn -0.3323 -0.4125 -0.8482
vn -0.3293 -0.3436 -0.8795
vn -0.1959 -0.4455 -0.8736
vn -0.2040 -0.3844 -0.9003
vn -0.0535 -0.4527 -0.8901
vn -0.0698 -0.4016 -0.9131
vn 0.0894 -0.4334 -0.8967
vn 0.0682 -0.3932 -0.9169
vn 0.2273 -0.3879 -0.8932
vn 0.2044 -0.3581 -0.9110
vn 0.3547 -0.3174 -0.8795
vn 0.3326 -0.2967 -0.8952
vn 0.4662 -0.2243 -0.8558
vn 0.4464 -0.2107 -0.8697
vn 0.5569 -0.1122 -0.8230
vn 0.5400 -0.1034 -0.8353
vn 0.6227 0.0144 -0.7824
vn 0.6083 0.0205 -0.7934
vn 0.6606 0.1505 -0.7355
vn 0.6476 0.1554 -0.7459
vn 0.6689 0.2901 -0.6844
vn 0.6557 0.2948 -0.6951
vn 0.6472 0.4273 -0.6313
vn 0.6323 0.4317 -0.6433
vn 0.5966 0.5563 -0.5784
vn 0.5787 0.5596 -0.5933
vn 0.5195 0.6718 -0.5279
vn 0.4981 0.6726 -0.5472
vn 0.4195 0.7692 -0.4820
vn 0.3951 0.7658 -0.5074
vn 0.3010 0.8448 -0.4423
vn 0.2750 0.8357 -0.4753
vn 0.1690 0.8961 -0.4105
vn 0.1439 0.8802 -0.4522
vn 0.0289 0.9214 -0.3875
vn 0.0079 0.8986 -0.4387
usemtl None
s 1
f 93/97/93 94/98/94 96/99/95 95/100/96
f 95/100/96 96/99/95 98/101/97 97/102/98
f 97/102/98 98/101/97 100/103/99 99/104/100
f 99/104/100 100/103/99 102/105/101 101/106/102
f 101/106/102 102/105/101 104/107/103 103/108/104
f 103/108/104 104/107/103 106/109/105 105/110/106
f 105/110/106 106/109/105 108/111/107 107/112/108
f 107/112/108 108/111/107 110/113/109 109/114/110
f 109/114/110 110/113/109 112/115/111 111/116/112
f 111/116/112 112/115/111 114/117/113 113/118/114
f 113/118/114 114/117/113 116/119/115 115/120/116
f 115/120/116 116/119/115 118/121/117 117/122/118
f 117/122/118 118/121/117 120/123/119 119/124/120
f 119/124/120 120/123/119 122/125/121 121/126/122
f 121/126/122 122/125/121 124/127/123 123/128/124
f 123/128/124 124/127/123 126/129/125 125/130/126
f 125/130/126 126/129/125 128/131/127 127/132/128
f 127/132/128 128/131/127 130/133/129 129/134/130
f 129/134/130 130/133/129 132/135/131 131/136/132
f 131/136/132 132/135/131 134/137/133 133/138/134
f 133/138/134 134/137/133 136/139/135 135/140/136
f 135/140/136 136/139/135 138/141/137 137/142/138
f 137/142/138 138/141/137 140/143/139 139/144/140
f 139/144/140 140/143/139 142/145/141 141/146/142
f 141/146/142 142/145/141 144/147/143 143/148/144
f 143/148/144 144/147/143 146/149/145 145/150/146
f 145/150/146 146/149/145 148/151/147 147/152/148
f 147/152/148 148/151/147 150/153/149 149/154/150
f 149/154/150 150/153/149 152/155/151 151/156/152
f 151/156/152 152/155/151 154/157/153 153/158/154
f 153/158/154 154/157/153 156/159/155 155/160/156
f 155/160/156 156/159/155 94/161/94 93/162/93
f 93/163/93 95/164/96 97/165/98 99/166/100 101/167/102 103/168/104 105/169/106 107/170/108 109/171/110 111/172/112 113/173/114 115/174/116 117/175/118 119/176/120 121/177/122 123/178/124 125/179/126 127/180/128 129/181/130 131/182/132 133/183/134 135/184/136 137/185/138 139/186/140 141/187/142 143/188/144 145/189/146 147/190/148 149/191/150 151/192/152 153/193/154 155/194/156
f 157/195/157 159/196/158 160/197/159 158/198/160
f 159/196/158 161/199/161 162/200/162 160/197/159
f 161/199/161 163/201/163 164/202/164 162/200/162
f 163/201/163 165/203/165 166/204/166 164/202/164
f 165/203/165 167/205/167 168/206/168 166/204/166
f 167/205/167 169/207/169 170/208/170 168/206/168
f 169/207/169 171/209/171 172/210/172 170/208/170
f 171/209/171 173/211/173 174/212/174 172/210/172
f 173/211/173 175/213/175 176/214/176 174/212/174
f 175/213/175 177/215/177 178/216/178 176/214/176
f 177/215/177 179/217/179 180/218/180 178/216/178
f 179/217/179 181/219/181 182/220/182 180/218/180
f 181/219/181 183/221/183 184/222/184 182/220/182
f 183/221/183 185/223/185 186/224/186 184/222/184
f 185/223/185 187/225/187 188/226/188 186/224/186
f 187/225/187 189/227/189 190/228/190 188/226/188
f 189/227/189 191/229/191 192/230/192 190/228/190
f 191/229/191 193/231/193 194/232/194 192/230/192
f 193/231/193 195/233/195 196/234/196 194/232/194
f 195/233/195 197/235/197 198/236/198 196/234/196
f 197/235/197 199/237/199 200/238/200 198/236/198
f 199/237/199 201/239/201 202/240/202 200/238/200
f 201/239/201 203/241/203 204/242/204 202/240/202
f 203/241/203 205/243/205 206/244/206 204/242/204
f 205/243/205 207/245/207 208/246/208 206/244/206
f 207/245/207 209/247/209 210/248/210 208/246/208
f 209/247/209 211/249/211 212/250/212 210/248/210
f 211/249/211 213/251/213 214/252/214 212/250/212
f 213/251/213 215/253/215 216/254/216 214/252/214
f 215/253/215 217/255/217 218/256/218 216/254/216
f 217/255/217 219/257/219 220/258/220 218/256/218
f 219/257/219 157/259/157 158/260/160 220/258/220
f 157/261/157 219/262/219 217/263/217 215/264/215 213/265/213 211/266/211 209/267/209 207/268/207 205/269/205 203/270/203 201/271/201 199/272/199 197/273/197 195/274/195 193/275/193 191/276/191 189/277/189 187/278/187 185/279/185 183/280/183 181/281/181 179/282/179 177/283/177 175/284/175 173/285/173 171/286/171 169/287/169 167/288/167 165/289/165 163/290/163 161/291/161 159/292/158
f 96/99/95 94/98/94 158/198/160 160/197/159
f 98/101/97 96/99/95 160/197/159 162/200/162
f 100/103/99 98/101/97 162/200/162 164/202/164
f 102/105/101 100/103/99 164/202/164 166/204/166
f 104/107/103 102/105/101 166/204/166 168/206/168
f 106/109/105 104/107/103 168/206/168 170/208/170
f 108/111/107 106/109/105 170/208/170 172/210/172
f 110/113/109 108/111/107 172/210/172 174/212/174
f 112/115/111 110/113/109 174/212/174 176/214/176
f 114/117/113 112/115/111 176/214/176 178/216/178
f 116/119/115 114/117/113 178/216/178 180/218/180
f 118/121/117 116/119/115 180/218/180 182/220/182
f 120/123/119 118/121/117 182/220/182 184/222/184
f 122/125/121 120/123/119 184/222/184 186/224/186
f 124/127/123 122/125/121 186/224/186 188/226/188
f 126/129/125 124/127/123 188/226/188 190/228/190
f 128/131/127 126/129/125 190/228/190 192/230/192
f 130/133/129 128/131/127 192/230/192 194/232/194
f 132/135/131 130/133/129 194/232/194 196/234/196
f 134/137/133 132/135/131 196/234/196 198/236/198
f 136/139/135 134/137/133 198/236/198 200/238/200
f 138/141/137 136/139/135 200/238/200 202/240/202
f 140/143/139 138/141/137 202/240/202 204/242/204
f 142/145/141 140/143/139 204/242/204 206/244/206
f 144/147/143 142/145/141 206/244/206 208/246/208
f 146/149/145 144/147/143 208/246/208 210/248/210
f 148/151/147 146/149/145 210/248/210 212/250/212
f 150/153/149 148/151/147 212/250/212 214/252/214
f 152/155/151 150/153/149 214/252/214 216/254/216
f 154/157/153 152/155/151 216/254/216 218/256/218
f 156/159/155 154/157/153 218/256/218 220/258/220
f 94/161/94 156/159/155 220/258/220 158/260/160
